Coordinates
version=1
nRows=8
nColumns=63
inDegrees=yes

Units are S.I. units (second, meters, Newtons, ...)
If the header above contains a line with 'inDegrees', this indicates whether rotational values are in degrees (yes) or radians (no).

endheader
time	pelvis_tilt	pelvis_list	pelvis_rotation	pelvis_tx	pelvis_ty	pelvis_tz	hip_flexion_r	hip_adduction_r	hip_rotation_r	knee_angle_r	knee_angle_r_beta	ankle_angle_r	subtalar_angle_r	mtp_angle_r	hip_flexion_l	hip_adduction_l	hip_rotation_l	knee_angle_l	knee_angle_l_beta	ankle_angle_l	subtalar_angle_l	mtp_angle_l	L5_S1_Flex_Ext	L5_S1_Lat_Bending	L5_S1_axial_rotation	L4_L5_Flex_Ext	L4_L5_Lat_Bending	L4_L5_axial_rotation	L3_L4_Flex_Ext	L3_L4_Lat_Bending	L3_L4_axial_rotation	L2_L3_Flex_Ext	L2_L3_Lat_Bending	L2_L3_axial_rotation	L1_L2_Flex_Ext	L1_L2_Lat_Bending	L1_L2_axial_rotation	L1_T12_Flex_Ext	L1_T12_Lat_Bending	L1_T12_axial_rotation	Abs_r3	Abs_r2	Abs_r1	Abs_t1	Abs_t2	neck_flexion	neck_bending	neck_rotation	arm_flex_r	arm_add_r	arm_rot_r	elbow_flex_r	pro_sup_r	wrist_flex_r	wrist_dev_r	arm_flex_l	arm_add_l	arm_rot_l	elbow_flex_l	pro_sup_l	wrist_flex_l	wrist_dev_l
5.220339	0.072483	3.721625	83.526846	0.203992	0.725735	0.791459	6.399534	6.270428	11.938362	16.989989	0.296531	22.099685	-16.042757	0.000000	4.321162	-3.199656	7.413616	12.726239	0.222115	32.580080	-14.421219	0.000000	0.109514	0.205137	0.595699	0.203378	0.272833	0.632931	0.179920	0.498771	0.632931	0.125163	0.498771	0.521237	0.101694	0.418316	0.484006	0.062576	0.317758	0.446775	0.782246	2.320555	3.313102	0.000000	0.000000	22.260822	4.284247	2.123830	-0.545594	-17.828047	37.496150	37.054903	78.280607	6.855388	15.773981	14.229598	-4.974548	150.775885	0.586581	0.670941	11.473273	-23.389876
5.237288	0.042524	3.877356	83.493194	0.203276	0.727137	0.790504	5.926783	6.110534	12.190824	16.472096	0.287492	21.920224	-15.922615	0.000000	3.850566	-3.115548	7.115546	12.282961	0.214378	32.324831	-14.192604	0.000000	0.118847	0.230075	0.576236	0.220711	0.305999	0.612251	0.195254	0.559403	0.612251	0.135831	0.559403	0.504207	0.110362	0.469168	0.468192	0.067909	0.356386	0.432177	0.848914	2.602650	3.204854	0.000000	0.000000	23.434791	4.602168	3.147087	-0.340996	-18.140913	38.366546	36.941764	77.657071	6.664043	15.323615	13.989116	-5.098855	152.879295	0.547834	1.787925	8.740254	-23.134896
5.254237	0.028466	4.077422	83.505660	0.202619	0.728691	0.789074	5.303668	5.952674	12.399045	15.834687	0.276367	21.726554	-15.745182	0.000000	3.280670	-3.053440	6.741078	11.813837	0.206190	32.016102	-13.923063	0.000000	0.128053	0.255545	0.537471	0.237808	0.339875	0.571063	0.210379	0.621332	0.571063	0.146352	0.621332	0.470287	0.118910	0.521107	0.436695	0.073170	0.395839	0.403103	0.914672	2.890774	2.989251	0.000000	0.000000	24.431035	4.830283	4.146268	-0.198902	-18.416965	39.071937	36.860626	77.195978	6.321300	14.801575	13.748731	-5.260607	155.688593	0.497693	3.521859	5.702040	-22.728574
5.271186	0.019965	4.320488	83.569987	0.202060	0.730355	0.787176	4.541012	5.795162	12.588683	15.095856	0.263472	21.521392	-15.565234	0.000000	2.615989	-3.006213	6.301042	11.315334	0.197490	31.663562	-13.597020	0.000000	0.136094	0.279205	0.486047	0.252740	0.371343	0.516425	0.223589	0.678860	0.516425	0.155542	0.678860	0.425291	0.126377	0.569356	0.394913	0.077764	0.432489	0.364535	0.972107	3.158427	2.703247	0.000000	0.000000	25.258307	4.959787	5.045264	-0.182678	-18.624542	39.469281	36.846779	76.772110	5.792048	14.194615	13.499698	-5.484875	159.108052	0.436830	5.446298	2.495923	-22.182317
5.288136	0.005321	4.583834	83.679599	0.201574	0.732057	0.784880	3.683075	5.627818	12.725210	14.284879	0.249318	21.323189	-15.341847	0.000000	1.889270	-2.961470	5.834538	10.787196	0.188272	31.284151	-13.232844	0.000000	0.144268	0.299843	0.423351	0.267920	0.398791	0.449810	0.237018	0.729037	0.449810	0.164884	0.729037	0.370432	0.133967	0.611439	0.343972	0.082435	0.464456	0.317513	1.030491	3.391880	2.354549	0.000000	0.000000	25.918902	5.030378	5.859285	-0.305766	-18.745515	39.448293	36.913056	76.445030	5.143521	13.596714	13.220831	-5.786815	162.685498	0.363790	7.153597	-0.416117	-21.513079
5.305085	-0.016128	4.847735	83.831700	0.201159	0.733724	0.782293	2.776932	5.456278	12.796055	13.440582	0.234582	21.138164	-15.074303	0.000000	1.139282	-2.919288	5.373615	10.240455	0.178730	30.893693	-12.842346	0.000000	0.153142	0.316996	0.353544	0.284399	0.421605	0.375640	0.251596	0.770745	0.375640	0.175026	0.770745	0.309351	0.142207	0.646419	0.287254	0.087505	0.491028	0.265158	1.093876	3.585928	1.966303	0.000000	0.000000	26.432397	5.059947	6.577650	-0.578253	-18.774999	38.941855	37.075850	76.250073	4.393892	13.050408	12.890943	-6.166296	165.807690	0.293424	8.587152	-2.823405	-20.781835
5.322034	-0.054411	5.103544	84.027625	0.200822	0.735303	0.779546	1.857455	5.276767	12.795403	12.596541	0.219851	20.970110	-14.777907	0.000000	0.392329	-2.870225	4.960556	9.681242	0.168970	30.494867	-12.441557	0.000000	0.162182	0.328987	0.279163	0.301189	0.437553	0.296611	0.266449	0.799900	0.296611	0.185358	0.799900	0.244268	0.150602	0.670871	0.226820	0.092671	0.509601	0.209373	1.158451	3.721570	1.552623	0.000000	0.000000	26.817872	5.052691	7.180460	-0.984319	-18.703958	37.914223	37.317156	76.268408	3.591438	12.605258	12.499540	-6.625149	168.078283	0.249041	9.703601	-4.622409	-20.046651
5.338983	-0.105379	5.330860	84.272428	0.200560	0.736728	0.776801	0.976056	5.096507	12.666688	11.787681	0.205734	20.838109	-14.391766	0.000000	-0.302611	-2.819583	4.623916	9.134036	0.159419	30.100394	-12.031456	0.000000	0.172375	0.336391	0.197397	0.320118	0.447401	0.209734	0.283195	0.817902	0.209734	0.197008	0.817902	0.172722	0.160068	0.685969	0.160385	0.098495	0.521070	0.148048	1.231259	3.805327	1.097864	0.000000	0.000000	27.106096	5.060589	7.744680	-1.455018	-18.551432	36.529294	37.570707	76.448276	2.707633	12.203348	12.031550	-7.155526	169.228598	0.251972	10.517207	-5.808331	-19.375422
